<?xml version="1.0" encoding="UTF-8" standalone="no"?>
<svg width="732px" height="206px" viewBox="0 0 732 206" version="1.1" xmlns="http://www.w3.org/2000/svg" xmlns:xlink="http://www.w3.org/1999/xlink" xmlns:sketch="http://www.bohemiancoding.com/sketch/ns">
    <!-- Generator: Sketch 3.5.2 (25235) - http://www.bohemiancoding.com/sketch -->
    <title>Wheatly</title>
    <desc>Created with Sketch.</desc>
    <defs>
        <filter x="-50%" y="-50%" width="200%" height="200%" filterUnits="objectBoundingBox" id="filter-1">
            <feOffset dx="0" dy="1" in="SourceAlpha" result="shadowOffsetOuter1"></feOffset>
            <feGaussianBlur stdDeviation="1" in="shadowOffsetOuter1" result="shadowBlurOuter1"></feGaussianBlur>
            <feColorMatrix values="0 0 0 0 0   0 0 0 0 0   0 0 0 0 0  0 0 0 0.49089957 0" in="shadowBlurOuter1" type="matrix" result="shadowMatrixOuter1"></feColorMatrix>
            <feMerge>
                <feMergeNode in="shadowMatrixOuter1"></feMergeNode>
                <feMergeNode in="SourceGraphic"></feMergeNode>
            </feMerge>
        </filter>
    </defs>
    <g id="Page-1" stroke="none" stroke-width="1" fill="none" fill-rule="evenodd" sketch:type="MSPage">
        <path d="M625.266948,134.424169 C613.96111,143.019967 604.169273,149.128617 595.891156,152.750292 C587.403707,156.463551 579.067944,158.320153 570.883618,158.320153 C562.699291,158.320153 556.712698,154.985848 552.923658,148.317138 C550.710509,144.523168 549.266826,139.849874 548.592592,134.297183 C538.858685,143.251334 529.774925,149.736216 521.341053,153.752015 C515.278589,156.645894 510.049793,158.092812 505.654506,158.092812 C499.895165,158.092812 495.310496,155.081754 491.90036,149.059549 C489.552588,144.913449 488.013012,139.846413 487.281615,133.858363 C469.799598,149.863181 456.076991,157.865471 446.113384,157.865471 C441.414974,157.865471 438.270118,156.103002 436.678722,152.57801 C435.087325,149.053019 434.291638,144.89165 434.291638,140.093778 L434.291638,136.268051 C427.016682,144.300816 420.992198,149.908511 416.218008,153.091304 C411.443818,156.274098 406.783368,157.865471 402.23652,157.865471 C395.416248,157.865471 389.467545,154.644835 384.390231,148.203467 C381.00665,143.910864 378.750514,139.096664 377.621803,133.760802 C354.389633,150.436908 331.833855,158.774836 309.953799,158.774836 C301.921034,158.774836 295.820771,155.47842 291.652827,148.885491 C288.625308,144.096506 286.697373,138.847761 285.868998,133.13917 L285.868998,133.767297 C279.048726,141.345377 272.039107,147.33197 264.839931,151.727257 C257.640755,156.122543 251.237374,158.320153 245.629595,158.320153 C241.234308,158.320153 237.445325,156.349882 234.262532,152.40928 C231.079738,148.468679 229.488365,143.61878 229.488365,137.85944 C229.488365,131.796976 231.534416,123.233874 235.626579,112.169877 C239.718742,101.10588 241.764793,93.3763547 241.764793,88.9810684 C241.764793,85.7982748 240.476539,84.2069019 237.899992,84.2069019 C233.656267,84.2069019 227.897013,87.086529 220.622056,92.8458698 C213.347099,98.6052106 205.162896,106.865194 196.0692,117.626067 C195.614515,121.566669 195.311396,124.673635 195.159835,126.947059 C195.008273,129.220483 194.932493,132.479009 194.932493,136.722733 L195.614517,157.410788 L177.881899,157.410788 C177.730337,156.501419 177.237769,151.234732 176.40418,141.61057 C175.570592,131.986409 175.153803,126.947061 175.153803,126.492377 C175.153803,114.670572 177.351414,99.3630799 181.7467,80.5694417 C182.727646,76.3483995 183.758145,72.2702043 184.838197,68.3348519 L184.100351,69.4297198 C181.978488,68.217227 180.235556,66.9289728 178.871502,65.5649184 C177.204324,63.443056 175.764511,61.7001237 174.552018,60.3360694 L171.596581,68.2930135 C165.988802,83.2976118 161.063124,95.4223579 156.819399,104.667615 C149.544443,120.430022 142.496934,132.688566 135.676662,141.443617 C126.886089,152.391574 118.398767,157.865471 110.214441,157.865471 C101.57543,157.865471 95.3614972,152.333555 91.5724572,141.269559 C89.1474716,133.994602 87.934997,124.976822 87.934997,114.215948 C87.934997,109.062854 88.0107767,105.50121 88.1623383,103.530909 C88.3138999,101.560608 88.6170185,98.3778625 89.0717033,93.9825761 C84.6764169,102.621587 79.9022982,110.95735 74.7492038,118.990115 C67.3226855,130.508796 60.2751768,139.375017 53.6064664,145.589043 C44.8158937,153.773369 36.4801308,157.865471 28.5989276,157.865471 C22.9911485,157.865471 18.368589,155.364742 14.7311107,150.363209 C11.0936323,145.361676 9.27492038,138.920405 9.27492038,131.039202 C9.27492038,121.945506 10.9408889,111.715251 14.2728759,100.348131 L30.8723403,41.6940859 C32.3879563,36.6925531 33.1457529,32.448892 33.1457529,28.9629752 C33.1457529,28.0536056 32.8426342,27.1442497 32.2363878,26.2348801 C31.1754566,26.2348801 28.4852786,27.7125835 24.165773,30.6680347 C19.8462675,33.6234859 15.0342589,37.3745792 9.7296029,41.9214271 L6.09214271,45.1042048 L2,32.8277767 C12.0030655,22.8247111 20.9450658,15.0194059 28.8262689,9.41162669 C36.7074721,3.80384752 42.6940654,1 46.7862286,1 C51.6361998,1 54.061149,5.09210179 54.061149,13.2764281 C54.061149,22.8248089 50.2662455,40.9349642 42.6763248,67.6074375 L34.4636218,95.7870974 C33.5613566,99.2730142 32.2067951,104.996155 30.3998967,112.956691 C28.5929983,120.917227 27.6895626,126.564588 27.6895626,129.898943 C27.6895626,136.115337 29.6598338,139.223487 33.6004354,139.223487 C40.4207074,139.223487 49.2869279,131.645521 60.199363,116.489361 C70.3539902,102.242571 79.6369989,85.4573754 88.0486676,66.1332715 C96.4603364,46.8091677 101.272345,31.9942436 102.484838,21.6880548 C103.697331,11.3818661 105.023475,5.43316256 106.46331,3.84176577 C107.903145,2.25036898 110.896442,1.45468252 115.44329,1.45468252 C119.080768,1.45468252 121.543607,1.79569101 122.831881,2.4777182 C124.120154,3.1597454 124.764281,4.4858895 124.764281,6.45619029 C124.764281,10.5483535 123.930705,15.3224722 122.263528,20.7786898 C119.68698,29.4177009 118.322946,34.0402604 118.171385,34.6465068 L111.578488,66.7016247 C110.365995,72.9156502 109.2293,81.0998538 108.168369,91.254481 C107.107438,101.409108 106.57698,109.441752 106.57698,115.352655 C106.57698,123.082296 107.296887,128.99311 108.736722,133.085273 C110.176558,137.177436 112.260498,139.223487 114.988607,139.223487 C121.202633,139.223487 129.538396,129.296351 139.996146,109.441782 C149.84765,90.6481436 158.107633,69.7329567 164.776344,46.6955936 C164.170097,45.3315392 163.715419,43.8538358 163.412296,42.262439 C163.109173,40.6710422 162.957613,39.1175592 162.957613,37.6019432 C162.957613,28.8113704 164.852105,19.1115736 168.641145,8.50226164 C169.853638,5.31946806 171.179782,3.38708666 172.619617,2.70505946 C174.059452,2.02303227 177.280088,1.68202379 182.281621,1.68202379 C184.555045,1.68202379 186.032748,2.09881193 186.714775,2.93240073 C187.396802,3.76598952 187.737811,5.5468116 187.737811,8.27492038 C187.737811,17.9748627 185.009743,30.8574054 179.553526,46.9229349 C180.91758,48.5901125 182.205834,50.1057057 183.418327,51.4697601 C184.865682,53.0204973 186.524575,54.6769953 188.395031,56.4392777 C192.007311,45.3444338 196.080962,35.5794611 200.616025,27.1442451 C209.709721,10.0177844 219.409518,1.45468252 229.715706,1.45468252 C234.717239,1.45468252 238.809341,3.50073342 241.992134,7.59289659 C245.174928,11.6850598 246.766301,16.9138565 246.766301,23.2794437 C246.766301,38.4356036 238.657877,56.6227227 222.440786,77.8413465 C229.41262,73.4460601 234.451967,70.6043228 237.55898,69.3160492 C240.665993,68.0277756 243.735069,67.3836485 246.766301,67.3836485 C250.858464,67.3836485 254.04121,69.0508011 256.314634,72.3851562 C258.588058,75.7195114 259.724753,80.4936302 259.724753,86.7076557 C259.724753,92.7701197 257.754482,101.333222 253.81388,112.397218 C249.873279,123.461215 247.903007,131.721198 247.903007,137.177416 C247.903007,140.511771 249.115482,142.178924 251.540467,142.178924 C258.815424,142.178924 270.258153,132.933805 285.868998,114.44329 L285.868998,117.848351 C287.310243,104.81159 292.079924,93.0295024 300.178124,82.5018424 C310.029628,69.6948873 321.396578,63.2915058 334.279314,63.2915058 C346.404242,63.2915058 352.466615,69.0507601 352.466615,80.5694417 C352.466615,90.8756304 347.162038,99.8934103 336.552726,107.623052 C330.944947,111.715215 321.851388,116.337774 309.271775,121.490869 L304.497608,123.53694 L304.497608,124.446305 C304.497608,129.5994 305.331185,133.767281 306.998362,136.950075 C309.423348,141.648484 313.288111,143.997654 318.592767,143.997654 C327.686463,143.997654 336.855802,141.686374 346.101059,137.063745 C355.244842,132.491854 365.722743,125.066207 377.535072,114.786586 C379.314166,102.807918 384.213619,92.1600742 392.233505,82.8428543 C401.781886,71.7788575 412.163699,66.2469422 423.379258,66.2469422 C427.926106,66.2469422 432.056097,67.3836371 435.769357,69.6570611 C439.482616,71.9304851 443.00637,75.5679089 446.340725,80.5694417 L450.205527,66.2469422 L469.074851,66.2469422 L457.253106,114.215948 C456.192175,117.971834 455.282819,121.989933 454.525011,126.270364 C453.767203,130.550795 453.388304,133.51745 453.388304,135.170419 C453.388304,138.02404 454.29766,139.450828 456.116399,139.450828 C458.541385,139.450828 462.519817,137.235457 468.051816,132.804649 C473.516161,128.428026 479.904645,122.402892 487.217454,114.729071 C487.396589,112.801396 487.6314,111.019432 487.921888,109.383171 C488.679696,105.11458 490.498408,97.7965144 493.378078,87.4287538 L495.196808,80.5694417 L488.149229,81.706148 L489.058594,72.9179873 C489.210156,71.7528575 490.308961,70.9518428 492.355042,70.5149191 C494.401124,70.0779955 496.712404,69.6404863 499.288951,69.2023786 L516.140622,18.5052772 L535.269258,18.5265904 L519.273669,67.4511404 L540.210378,67.3836485 L537.482283,80.5694417 L529.070656,80.5694417 L514.293474,80.5694417 L513.156768,84.4626608 C511.034905,92.2515061 509.443533,99.1622561 508.382601,105.195118 C507.32167,111.22798 506.791213,116.534333 506.791213,121.114335 C506.791213,134.248095 509.064602,140.814876 513.61145,140.814876 C516.036436,140.814876 520.128538,138.828028 525.887879,134.854272 C532.866679,130.060987 540.499987,123.360766 548.788022,114.753415 C550.193972,101.005103 553.921692,84.5332493 559.971237,65.3375771 C568.458687,38.5111741 577.552246,19.7935974 587.252189,9.18428543 C592.708406,3.87962946 598.164542,1.22734126 603.620759,1.22734126 C608.016046,1.22734126 611.729249,3.15972266 614.760481,7.02454344 C617.791713,10.8893642 619.307306,15.7013728 619.307306,21.4607136 C619.307306,30.0997247 616.806578,39.7237419 611.805045,50.3330538 C607.56132,59.4267498 601.195828,69.8085636 592.708379,81.4788067 C586.645915,89.9662563 578.461711,100.34807 568.155523,112.62456 L567.018816,126.492377 C567.018816,137.404812 570.58046,142.860947 577.703856,142.860947 C583.766319,142.860947 591.420065,140.208659 600.665323,134.904003 C609.654526,129.746264 617.927196,123.155795 625.483566,115.132408 C626.979481,104.576709 630.74986,90.6308194 636.794753,73.2945213 L639.295507,66.7016247 L658.619514,66.7016247 C653.314858,81.2515382 649.412205,93.1868351 646.911439,102.507873 C644.410673,111.828912 643.160308,119.672107 643.160308,126.037694 C643.160308,133.918897 644.741025,137.85944 647.902505,137.85944 C653.472394,137.85944 660.171789,133.834829 668.000893,125.785487 C673.871537,119.862744 679.140592,113.179925 683.808215,105.73683 L694.219735,66.9041005 L712.726734,66.9289659 L694.994116,137.85944 C699.389402,135.481817 706.285352,130.946878 715.682171,124.254486 C722.047758,119.79526 726.670317,116.524894 729.549988,114.44329 L729.549988,133.767297 C727.428125,134.97979 724.396939,136.950061 720.456337,139.67817 C714.242312,143.921895 706.891684,148.241335 698.404235,152.636622 L690.901973,156.728764 C687.71918,171.43024 683.551298,182.56985 678.398204,190.14793 C672.487302,198.635379 665.364013,202.879041 657.028125,202.879041 C651.268784,202.879041 646.115767,201.363447 641.568919,198.332215 C637.022071,195.300983 634.748682,191.815119 634.748682,187.874517 C634.748682,178.326137 646.115631,165.670933 668.849871,149.908527 L673.624037,146.725749 L677.261498,133.539956 C671.047472,140.814912 664.227302,146.422607 656.800784,150.363209 C650.132074,153.849126 643.690802,155.592058 637.476777,155.592058 C632.475244,155.592058 628.9136,151.424177 626.791737,143.088289 C626.116191,140.386102 625.607929,137.49807 625.266948,134.424169 Z M232.671143,24.8708325 C232.671143,19.2630533 231.155549,16.4592058 228.124317,16.4592058 C223.122785,16.4592058 217.249861,25.5906552 210.50537,43.8538279 C203.760879,62.1170006 199.327768,79.1295349 197.205906,94.8919412 C209.633957,78.5232885 218.651737,64.8450593 224.259516,53.8568434 C229.867295,42.8686275 232.671143,33.2067204 232.671143,24.8708325 Z M306.771021,108.532417 C316.16784,105.0465 323.670027,100.992288 329.277806,96.3696594 C334.885585,91.7470306 337.689433,87.162361 337.689433,82.615513 C337.689433,79.2811578 335.9465,77.6140053 332.460584,77.6140053 C327.459051,77.6140053 322.381814,80.6830816 317.228719,86.8213264 C312.075625,92.9595711 308.58976,100.196529 306.771021,108.532417 Z M438.021456,117.192698 L443.1615,94.4372586 C438.008405,88.3747947 434.598321,84.6615912 432.931143,83.2975368 C430.506157,81.327236 427.929649,80.3421004 425.20154,80.3421004 C417.924215,80.3421004 411.36809,84.472092 405.532969,92.7321992 C399.697847,100.992306 396.78033,110.275315 396.78033,120.581504 C396.78033,127.098653 397.843614,132.365339 399.970212,136.381721 C402.096811,140.398104 404.906579,142.406265 408.3996,142.406265 C412.958289,142.406265 418.427449,139.074328 424.807245,132.410354 C429.212004,127.413557 433.616697,122.341056 438.021456,117.192698 Z M571.3383,90.3451159 C579.82575,78.3717496 585.660784,69.8844274 588.843577,64.8828946 C594.299795,56.395445 598.429787,48.9311483 601.233676,42.4897803 C604.037566,36.0484123 605.439489,30.0997088 605.439489,24.6434912 C605.439489,19.4903969 604.075456,16.9138883 601.347347,16.9138883 C596.345814,16.9138883 590.131882,27.8261598 582.705363,49.65103 C577.400707,65.4134363 573.611724,78.977996 571.3383,90.3451159 Z M669.304553,168.55051 L670.213918,164.685709 C656.724936,174.234089 649.980546,181.130039 649.980546,185.373763 C649.980546,189.011242 652.405495,190.829954 657.255467,190.829954 C660.135137,190.829954 662.446417,189.238581 664.189375,186.055787 C665.932333,182.872994 667.637376,177.03796 669.304553,168.55051 Z" id="Wheatly" fill="#FAFEFF" filter="url(#filter-1)" sketch:type="MSShapeGroup"></path>
    </g>
</svg>